<mxfile host="app.diagrams.net" agent="Mozilla/5.0 (Macintosh; Intel Mac OS X 10.15; rv:139.0) Gecko/20100101 Firefox/139.0" version="27.1.6">
  <diagram name="PÃ¡gina-1" id="FVYXDw3dNOZKf5emx4g6">
    <mxGraphModel dx="2441" dy="1972" grid="1" gridSize="10" guides="1" tooltips="1" connect="1" arrows="1" fold="1" page="1" pageScale="1" pageWidth="850" pageHeight="1100" math="0" shadow="0">
      <root>
        <mxCell id="0" />
        <mxCell id="1" parent="0" />
        <mxCell id="Vzst9AxUtuQRtKNh6hwZ-1" value="Fiction implements&amp;nbsp;BaseWritingProject" style="swimlane;fontStyle=0;childLayout=stackLayout;horizontal=1;startSize=30;horizontalStack=0;resizeParent=1;resizeParentMax=0;resizeLast=0;collapsible=1;marginBottom=0;whiteSpace=wrap;html=1;" parent="1" vertex="1">
          <mxGeometry x="10" y="40" width="180" height="270" as="geometry">
            <mxRectangle x="50" y="40" width="70" height="30" as="alternateBounds" />
          </mxGeometry>
        </mxCell>
        <mxCell id="Vzst9AxUtuQRtKNh6hwZ-26" value="Serie: String" style="text;strokeColor=none;fillColor=none;align=left;verticalAlign=middle;spacingLeft=4;spacingRight=4;overflow=hidden;points=[[0,0.5],[1,0.5]];portConstraint=eastwest;rotatable=0;whiteSpace=wrap;html=1;" parent="Vzst9AxUtuQRtKNh6hwZ-1" vertex="1">
          <mxGeometry y="30" width="180" height="30" as="geometry" />
        </mxCell>
        <mxCell id="Vzst9AxUtuQRtKNh6hwZ-27" value="Volume: String" style="text;strokeColor=none;fillColor=none;align=left;verticalAlign=middle;spacingLeft=4;spacingRight=4;overflow=hidden;points=[[0,0.5],[1,0.5]];portConstraint=eastwest;rotatable=0;whiteSpace=wrap;html=1;" parent="Vzst9AxUtuQRtKNh6hwZ-1" vertex="1">
          <mxGeometry y="60" width="180" height="30" as="geometry" />
        </mxCell>
        <mxCell id="Vzst9AxUtuQRtKNh6hwZ-28" value="Genre: Genre" style="text;strokeColor=none;fillColor=none;align=left;verticalAlign=middle;spacingLeft=4;spacingRight=4;overflow=hidden;points=[[0,0.5],[1,0.5]];portConstraint=eastwest;rotatable=0;whiteSpace=wrap;html=1;" parent="Vzst9AxUtuQRtKNh6hwZ-1" vertex="1">
          <mxGeometry y="90" width="180" height="30" as="geometry" />
        </mxCell>
        <mxCell id="Vzst9AxUtuQRtKNh6hwZ-29" value="License: String" style="text;strokeColor=none;fillColor=none;align=left;verticalAlign=middle;spacingLeft=4;spacingRight=4;overflow=hidden;points=[[0,0.5],[1,0.5]];portConstraint=eastwest;rotatable=0;whiteSpace=wrap;html=1;" parent="Vzst9AxUtuQRtKNh6hwZ-1" vertex="1">
          <mxGeometry y="120" width="180" height="30" as="geometry" />
        </mxCell>
        <mxCell id="Vzst9AxUtuQRtKNh6hwZ-32" value="Situtation: String" style="text;strokeColor=none;fillColor=none;align=left;verticalAlign=middle;spacingLeft=4;spacingRight=4;overflow=hidden;points=[[0,0.5],[1,0.5]];portConstraint=eastwest;rotatable=0;whiteSpace=wrap;html=1;" parent="Vzst9AxUtuQRtKNh6hwZ-1" vertex="1">
          <mxGeometry y="150" width="180" height="30" as="geometry" />
        </mxCell>
        <mxCell id="Vzst9AxUtuQRtKNh6hwZ-33" value="Resume frase: String" style="text;strokeColor=none;fillColor=none;align=left;verticalAlign=middle;spacingLeft=4;spacingRight=4;overflow=hidden;points=[[0,0.5],[1,0.5]];portConstraint=eastwest;rotatable=0;whiteSpace=wrap;html=1;" parent="Vzst9AxUtuQRtKNh6hwZ-1" vertex="1">
          <mxGeometry y="180" width="180" height="30" as="geometry" />
        </mxCell>
        <mxCell id="Vzst9AxUtuQRtKNh6hwZ-34" value="Resume paragraph: String" style="text;strokeColor=none;fillColor=none;align=left;verticalAlign=middle;spacingLeft=4;spacingRight=4;overflow=hidden;points=[[0,0.5],[1,0.5]];portConstraint=eastwest;rotatable=0;whiteSpace=wrap;html=1;" parent="Vzst9AxUtuQRtKNh6hwZ-1" vertex="1">
          <mxGeometry y="210" width="180" height="30" as="geometry" />
        </mxCell>
        <mxCell id="Vzst9AxUtuQRtKNh6hwZ-35" value="Resume one page: String" style="text;strokeColor=none;fillColor=none;align=left;verticalAlign=middle;spacingLeft=4;spacingRight=4;overflow=hidden;points=[[0,0.5],[1,0.5]];portConstraint=eastwest;rotatable=0;whiteSpace=wrap;html=1;" parent="Vzst9AxUtuQRtKNh6hwZ-1" vertex="1">
          <mxGeometry y="240" width="180" height="30" as="geometry" />
        </mxCell>
        <mxCell id="Vzst9AxUtuQRtKNh6hwZ-5" value="Character" style="swimlane;fontStyle=0;childLayout=stackLayout;horizontal=1;startSize=30;horizontalStack=0;resizeParent=1;resizeParentMax=0;resizeLast=0;collapsible=1;marginBottom=0;whiteSpace=wrap;html=1;" parent="1" vertex="1">
          <mxGeometry x="280" y="-230" width="200" height="450" as="geometry" />
        </mxCell>
        <mxCell id="wTqyuKIVNjIW1eiZXpSt-27" value="Id: Int" style="text;strokeColor=none;fillColor=none;align=left;verticalAlign=middle;spacingLeft=4;spacingRight=4;overflow=hidden;points=[[0,0.5],[1,0.5]];portConstraint=eastwest;rotatable=0;whiteSpace=wrap;html=1;" vertex="1" parent="Vzst9AxUtuQRtKNh6hwZ-5">
          <mxGeometry y="30" width="200" height="30" as="geometry" />
        </mxCell>
        <mxCell id="Vzst9AxUtuQRtKNh6hwZ-6" value="Name: String" style="text;strokeColor=none;fillColor=none;align=left;verticalAlign=middle;spacingLeft=4;spacingRight=4;overflow=hidden;points=[[0,0.5],[1,0.5]];portConstraint=eastwest;rotatable=0;whiteSpace=wrap;html=1;" parent="Vzst9AxUtuQRtKNh6hwZ-5" vertex="1">
          <mxGeometry y="60" width="200" height="30" as="geometry" />
        </mxCell>
        <mxCell id="Vzst9AxUtuQRtKNh6hwZ-7" value="Importance: StoryImportance" style="text;strokeColor=none;fillColor=none;align=left;verticalAlign=middle;spacingLeft=4;spacingRight=4;overflow=hidden;points=[[0,0.5],[1,0.5]];portConstraint=eastwest;rotatable=0;whiteSpace=wrap;html=1;" parent="Vzst9AxUtuQRtKNh6hwZ-5" vertex="1">
          <mxGeometry y="90" width="200" height="30" as="geometry" />
        </mxCell>
        <mxCell id="Vzst9AxUtuQRtKNh6hwZ-8" value="Motivation: String" style="text;strokeColor=none;fillColor=none;align=left;verticalAlign=middle;spacingLeft=4;spacingRight=4;overflow=hidden;points=[[0,0.5],[1,0.5]];portConstraint=eastwest;rotatable=0;whiteSpace=wrap;html=1;" parent="Vzst9AxUtuQRtKNh6hwZ-5" vertex="1">
          <mxGeometry y="120" width="200" height="30" as="geometry" />
        </mxCell>
        <mxCell id="wTqyuKIVNjIW1eiZXpSt-26" value="Objetive: String" style="text;strokeColor=none;fillColor=none;align=left;verticalAlign=middle;spacingLeft=4;spacingRight=4;overflow=hidden;points=[[0,0.5],[1,0.5]];portConstraint=eastwest;rotatable=0;whiteSpace=wrap;html=1;" vertex="1" parent="Vzst9AxUtuQRtKNh6hwZ-5">
          <mxGeometry y="150" width="200" height="30" as="geometry" />
        </mxCell>
        <mxCell id="wTqyuKIVNjIW1eiZXpSt-25" value="Conflict: String" style="text;strokeColor=none;fillColor=none;align=left;verticalAlign=middle;spacingLeft=4;spacingRight=4;overflow=hidden;points=[[0,0.5],[1,0.5]];portConstraint=eastwest;rotatable=0;whiteSpace=wrap;html=1;" vertex="1" parent="Vzst9AxUtuQRtKNh6hwZ-5">
          <mxGeometry y="180" width="200" height="30" as="geometry" />
        </mxCell>
        <mxCell id="wTqyuKIVNjIW1eiZXpSt-24" value="Epifani: String" style="text;strokeColor=none;fillColor=none;align=left;verticalAlign=middle;spacingLeft=4;spacingRight=4;overflow=hidden;points=[[0,0.5],[1,0.5]];portConstraint=eastwest;rotatable=0;whiteSpace=wrap;html=1;" vertex="1" parent="Vzst9AxUtuQRtKNh6hwZ-5">
          <mxGeometry y="210" width="200" height="30" as="geometry" />
        </mxCell>
        <mxCell id="wTqyuKIVNjIW1eiZXpSt-23" value="Resume frase: String" style="text;strokeColor=none;fillColor=none;align=left;verticalAlign=middle;spacingLeft=4;spacingRight=4;overflow=hidden;points=[[0,0.5],[1,0.5]];portConstraint=eastwest;rotatable=0;whiteSpace=wrap;html=1;" vertex="1" parent="Vzst9AxUtuQRtKNh6hwZ-5">
          <mxGeometry y="240" width="200" height="30" as="geometry" />
        </mxCell>
        <mxCell id="wTqyuKIVNjIW1eiZXpSt-22" value="Resume paragraph: String" style="text;strokeColor=none;fillColor=none;align=left;verticalAlign=middle;spacingLeft=4;spacingRight=4;overflow=hidden;points=[[0,0.5],[1,0.5]];portConstraint=eastwest;rotatable=0;whiteSpace=wrap;html=1;" vertex="1" parent="Vzst9AxUtuQRtKNh6hwZ-5">
          <mxGeometry y="270" width="200" height="30" as="geometry" />
        </mxCell>
        <mxCell id="wTqyuKIVNjIW1eiZXpSt-21" value="Resume: String" style="text;strokeColor=none;fillColor=none;align=left;verticalAlign=middle;spacingLeft=4;spacingRight=4;overflow=hidden;points=[[0,0.5],[1,0.5]];portConstraint=eastwest;rotatable=0;whiteSpace=wrap;html=1;" vertex="1" parent="Vzst9AxUtuQRtKNh6hwZ-5">
          <mxGeometry y="300" width="200" height="30" as="geometry" />
        </mxCell>
        <mxCell id="wTqyuKIVNjIW1eiZXpSt-20" value="Notes: String" style="text;strokeColor=none;fillColor=none;align=left;verticalAlign=middle;spacingLeft=4;spacingRight=4;overflow=hidden;points=[[0,0.5],[1,0.5]];portConstraint=eastwest;rotatable=0;whiteSpace=wrap;html=1;" vertex="1" parent="Vzst9AxUtuQRtKNh6hwZ-5">
          <mxGeometry y="330" width="200" height="30" as="geometry" />
        </mxCell>
        <mxCell id="wTqyuKIVNjIW1eiZXpSt-19" value="Details: String" style="text;strokeColor=none;fillColor=none;align=left;verticalAlign=middle;spacingLeft=4;spacingRight=4;overflow=hidden;points=[[0,0.5],[1,0.5]];portConstraint=eastwest;rotatable=0;whiteSpace=wrap;html=1;" vertex="1" parent="Vzst9AxUtuQRtKNh6hwZ-5">
          <mxGeometry y="360" width="200" height="30" as="geometry" />
        </mxCell>
        <mxCell id="wTqyuKIVNjIW1eiZXpSt-28" value="baseWritingProjectID: Int" style="text;strokeColor=none;fillColor=none;align=left;verticalAlign=middle;spacingLeft=4;spacingRight=4;overflow=hidden;points=[[0,0.5],[1,0.5]];portConstraint=eastwest;rotatable=0;whiteSpace=wrap;html=1;" vertex="1" parent="Vzst9AxUtuQRtKNh6hwZ-5">
          <mxGeometry y="390" width="200" height="30" as="geometry" />
        </mxCell>
        <mxCell id="wTqyuKIVNjIW1eiZXpSt-29" value="PlotID: Int" style="text;strokeColor=none;fillColor=none;align=left;verticalAlign=middle;spacingLeft=4;spacingRight=4;overflow=hidden;points=[[0,0.5],[1,0.5]];portConstraint=eastwest;rotatable=0;whiteSpace=wrap;html=1;" vertex="1" parent="Vzst9AxUtuQRtKNh6hwZ-5">
          <mxGeometry y="420" width="200" height="30" as="geometry" />
        </mxCell>
        <mxCell id="wTqyuKIVNjIW1eiZXpSt-64" style="edgeStyle=orthogonalEdgeStyle;rounded=0;orthogonalLoop=1;jettySize=auto;html=1;entryX=1;entryY=0.5;entryDx=0;entryDy=0;" edge="1" parent="1" source="Vzst9AxUtuQRtKNh6hwZ-9" target="Vzst9AxUtuQRtKNh6hwZ-33">
          <mxGeometry relative="1" as="geometry" />
        </mxCell>
        <mxCell id="Vzst9AxUtuQRtKNh6hwZ-9" value="Plot" style="swimlane;fontStyle=0;childLayout=stackLayout;horizontal=1;startSize=30;horizontalStack=0;resizeParent=1;resizeParentMax=0;resizeLast=0;collapsible=1;marginBottom=0;whiteSpace=wrap;html=1;" parent="1" vertex="1">
          <mxGeometry x="290" y="270" width="180" height="240" as="geometry" />
        </mxCell>
        <mxCell id="Vzst9AxUtuQRtKNh6hwZ-10" value="id: Int" style="text;strokeColor=none;fillColor=none;align=left;verticalAlign=middle;spacingLeft=4;spacingRight=4;overflow=hidden;points=[[0,0.5],[1,0.5]];portConstraint=eastwest;rotatable=0;whiteSpace=wrap;html=1;" parent="Vzst9AxUtuQRtKNh6hwZ-9" vertex="1">
          <mxGeometry y="30" width="180" height="30" as="geometry" />
        </mxCell>
        <mxCell id="wTqyuKIVNjIW1eiZXpSt-71" value="plot: String" style="text;strokeColor=none;fillColor=none;align=left;verticalAlign=middle;spacingLeft=4;spacingRight=4;overflow=hidden;points=[[0,0.5],[1,0.5]];portConstraint=eastwest;rotatable=0;whiteSpace=wrap;html=1;" vertex="1" parent="Vzst9AxUtuQRtKNh6hwZ-9">
          <mxGeometry y="60" width="180" height="30" as="geometry" />
        </mxCell>
        <mxCell id="wTqyuKIVNjIW1eiZXpSt-72" value="Description: String" style="text;strokeColor=none;fillColor=none;align=left;verticalAlign=middle;spacingLeft=4;spacingRight=4;overflow=hidden;points=[[0,0.5],[1,0.5]];portConstraint=eastwest;rotatable=0;whiteSpace=wrap;html=1;" vertex="1" parent="Vzst9AxUtuQRtKNh6hwZ-9">
          <mxGeometry y="90" width="180" height="30" as="geometry" />
        </mxCell>
        <mxCell id="wTqyuKIVNjIW1eiZXpSt-80" value="plotStepsResume: String" style="text;strokeColor=none;fillColor=none;align=left;verticalAlign=middle;spacingLeft=4;spacingRight=4;overflow=hidden;points=[[0,0.5],[1,0.5]];portConstraint=eastwest;rotatable=0;whiteSpace=wrap;html=1;" vertex="1" parent="Vzst9AxUtuQRtKNh6hwZ-9">
          <mxGeometry y="120" width="180" height="30" as="geometry" />
        </mxCell>
        <mxCell id="wTqyuKIVNjIW1eiZXpSt-73" value="Result: String" style="text;strokeColor=none;fillColor=none;align=left;verticalAlign=middle;spacingLeft=4;spacingRight=4;overflow=hidden;points=[[0,0.5],[1,0.5]];portConstraint=eastwest;rotatable=0;whiteSpace=wrap;html=1;" vertex="1" parent="Vzst9AxUtuQRtKNh6hwZ-9">
          <mxGeometry y="150" width="180" height="30" as="geometry" />
        </mxCell>
        <mxCell id="Vzst9AxUtuQRtKNh6hwZ-11" value="Importance: StoryImportance" style="text;strokeColor=none;fillColor=none;align=left;verticalAlign=middle;spacingLeft=4;spacingRight=4;overflow=hidden;points=[[0,0.5],[1,0.5]];portConstraint=eastwest;rotatable=0;whiteSpace=wrap;html=1;" parent="Vzst9AxUtuQRtKNh6hwZ-9" vertex="1">
          <mxGeometry y="180" width="180" height="30" as="geometry" />
        </mxCell>
        <mxCell id="Vzst9AxUtuQRtKNh6hwZ-12" value="baseWritingProjectID: Int" style="text;strokeColor=none;fillColor=none;align=left;verticalAlign=middle;spacingLeft=4;spacingRight=4;overflow=hidden;points=[[0,0.5],[1,0.5]];portConstraint=eastwest;rotatable=0;whiteSpace=wrap;html=1;" parent="Vzst9AxUtuQRtKNh6hwZ-9" vertex="1">
          <mxGeometry y="210" width="180" height="30" as="geometry" />
        </mxCell>
        <mxCell id="wTqyuKIVNjIW1eiZXpSt-65" style="edgeStyle=orthogonalEdgeStyle;rounded=0;orthogonalLoop=1;jettySize=auto;html=1;entryX=1;entryY=0.5;entryDx=0;entryDy=0;" edge="1" parent="1" source="Vzst9AxUtuQRtKNh6hwZ-13" target="Vzst9AxUtuQRtKNh6hwZ-33">
          <mxGeometry relative="1" as="geometry" />
        </mxCell>
        <mxCell id="Vzst9AxUtuQRtKNh6hwZ-13" value="World" style="swimlane;fontStyle=0;childLayout=stackLayout;horizontal=1;startSize=30;horizontalStack=0;resizeParent=1;resizeParentMax=0;resizeLast=0;collapsible=1;marginBottom=0;whiteSpace=wrap;html=1;" parent="1" vertex="1">
          <mxGeometry x="580" y="190" width="200" height="90" as="geometry" />
        </mxCell>
        <mxCell id="Vzst9AxUtuQRtKNh6hwZ-14" value="id: Int" style="text;strokeColor=none;fillColor=none;align=left;verticalAlign=middle;spacingLeft=4;spacingRight=4;overflow=hidden;points=[[0,0.5],[1,0.5]];portConstraint=eastwest;rotatable=0;whiteSpace=wrap;html=1;" parent="Vzst9AxUtuQRtKNh6hwZ-13" vertex="1">
          <mxGeometry y="30" width="200" height="30" as="geometry" />
        </mxCell>
        <mxCell id="Vzst9AxUtuQRtKNh6hwZ-16" value="baseWritingProjectID: Int" style="text;strokeColor=none;fillColor=none;align=left;verticalAlign=middle;spacingLeft=4;spacingRight=4;overflow=hidden;points=[[0,0.5],[1,0.5]];portConstraint=eastwest;rotatable=0;whiteSpace=wrap;html=1;" parent="Vzst9AxUtuQRtKNh6hwZ-13" vertex="1">
          <mxGeometry y="60" width="200" height="30" as="geometry" />
        </mxCell>
        <mxCell id="Vzst9AxUtuQRtKNh6hwZ-46" value="Sources" style="swimlane;fontStyle=0;childLayout=stackLayout;horizontal=1;startSize=30;horizontalStack=0;resizeParent=1;resizeParentMax=0;resizeLast=0;collapsible=1;marginBottom=0;whiteSpace=wrap;html=1;" parent="1" vertex="1">
          <mxGeometry x="-285" y="700" width="190" height="150" as="geometry" />
        </mxCell>
        <mxCell id="Vzst9AxUtuQRtKNh6hwZ-47" value="id: Int" style="text;strokeColor=none;fillColor=none;align=left;verticalAlign=middle;spacingLeft=4;spacingRight=4;overflow=hidden;points=[[0,0.5],[1,0.5]];portConstraint=eastwest;rotatable=0;whiteSpace=wrap;html=1;" parent="Vzst9AxUtuQRtKNh6hwZ-46" vertex="1">
          <mxGeometry y="30" width="190" height="30" as="geometry" />
        </mxCell>
        <mxCell id="Vzst9AxUtuQRtKNh6hwZ-48" value="name: String" style="text;strokeColor=none;fillColor=none;align=left;verticalAlign=middle;spacingLeft=4;spacingRight=4;overflow=hidden;points=[[0,0.5],[1,0.5]];portConstraint=eastwest;rotatable=0;whiteSpace=wrap;html=1;" parent="Vzst9AxUtuQRtKNh6hwZ-46" vertex="1">
          <mxGeometry y="60" width="190" height="30" as="geometry" />
        </mxCell>
        <mxCell id="wTqyuKIVNjIW1eiZXpSt-100" value="data: String" style="text;strokeColor=none;fillColor=none;align=left;verticalAlign=middle;spacingLeft=4;spacingRight=4;overflow=hidden;points=[[0,0.5],[1,0.5]];portConstraint=eastwest;rotatable=0;whiteSpace=wrap;html=1;" vertex="1" parent="Vzst9AxUtuQRtKNh6hwZ-46">
          <mxGeometry y="90" width="190" height="30" as="geometry" />
        </mxCell>
        <mxCell id="Vzst9AxUtuQRtKNh6hwZ-49" value="baseWritingProjectID: Int" style="text;strokeColor=none;fillColor=none;align=left;verticalAlign=middle;spacingLeft=4;spacingRight=4;overflow=hidden;points=[[0,0.5],[1,0.5]];portConstraint=eastwest;rotatable=0;whiteSpace=wrap;html=1;" parent="Vzst9AxUtuQRtKNh6hwZ-46" vertex="1">
          <mxGeometry y="120" width="190" height="30" as="geometry" />
        </mxCell>
        <mxCell id="Vzst9AxUtuQRtKNh6hwZ-72" value="&lt;div&gt;Section&lt;/div&gt;" style="swimlane;fontStyle=0;childLayout=stackLayout;horizontal=1;startSize=30;horizontalStack=0;resizeParent=1;resizeParentMax=0;resizeLast=0;collapsible=1;marginBottom=0;whiteSpace=wrap;html=1;" parent="1" vertex="1">
          <mxGeometry x="10" y="530" width="190" height="300" as="geometry" />
        </mxCell>
        <mxCell id="wTqyuKIVNjIW1eiZXpSt-13" value="Id: Int" style="text;strokeColor=none;fillColor=none;align=left;verticalAlign=middle;spacingLeft=4;spacingRight=4;overflow=hidden;points=[[0,0.5],[1,0.5]];portConstraint=eastwest;rotatable=0;whiteSpace=wrap;html=1;" vertex="1" parent="Vzst9AxUtuQRtKNh6hwZ-72">
          <mxGeometry y="30" width="190" height="30" as="geometry" />
        </mxCell>
        <mxCell id="Vzst9AxUtuQRtKNh6hwZ-73" value="Name: String" style="text;strokeColor=none;fillColor=none;align=left;verticalAlign=middle;spacingLeft=4;spacingRight=4;overflow=hidden;points=[[0,0.5],[1,0.5]];portConstraint=eastwest;rotatable=0;whiteSpace=wrap;html=1;" parent="Vzst9AxUtuQRtKNh6hwZ-72" vertex="1">
          <mxGeometry y="60" width="190" height="30" as="geometry" />
        </mxCell>
        <mxCell id="Vzst9AxUtuQRtKNh6hwZ-74" value="&lt;div&gt;Resume: String&lt;/div&gt;" style="text;strokeColor=none;fillColor=none;align=left;verticalAlign=middle;spacingLeft=4;spacingRight=4;overflow=hidden;points=[[0,0.5],[1,0.5]];portConstraint=eastwest;rotatable=0;whiteSpace=wrap;html=1;" parent="Vzst9AxUtuQRtKNh6hwZ-72" vertex="1">
          <mxGeometry y="90" width="190" height="30" as="geometry" />
        </mxCell>
        <mxCell id="wTqyuKIVNjIW1eiZXpSt-4" value="Text: String" style="text;strokeColor=none;fillColor=none;align=left;verticalAlign=middle;spacingLeft=4;spacingRight=4;overflow=hidden;points=[[0,0.5],[1,0.5]];portConstraint=eastwest;rotatable=0;whiteSpace=wrap;html=1;" vertex="1" parent="Vzst9AxUtuQRtKNh6hwZ-72">
          <mxGeometry y="120" width="190" height="30" as="geometry" />
        </mxCell>
        <mxCell id="wTqyuKIVNjIW1eiZXpSt-7" value="PovCharacterID: Int" style="text;strokeColor=none;fillColor=none;align=left;verticalAlign=middle;spacingLeft=4;spacingRight=4;overflow=hidden;points=[[0,0.5],[1,0.5]];portConstraint=eastwest;rotatable=0;whiteSpace=wrap;html=1;" vertex="1" parent="Vzst9AxUtuQRtKNh6hwZ-72">
          <mxGeometry y="150" width="190" height="30" as="geometry" />
        </mxCell>
        <mxCell id="wTqyuKIVNjIW1eiZXpSt-5" value="Status: Status" style="text;strokeColor=none;fillColor=none;align=left;verticalAlign=middle;spacingLeft=4;spacingRight=4;overflow=hidden;points=[[0,0.5],[1,0.5]];portConstraint=eastwest;rotatable=0;whiteSpace=wrap;html=1;" vertex="1" parent="Vzst9AxUtuQRtKNh6hwZ-72">
          <mxGeometry y="180" width="190" height="30" as="geometry" />
        </mxCell>
        <mxCell id="wTqyuKIVNjIW1eiZXpSt-6" value="Compile: Boolena" style="text;strokeColor=none;fillColor=none;align=left;verticalAlign=middle;spacingLeft=4;spacingRight=4;overflow=hidden;points=[[0,0.5],[1,0.5]];portConstraint=eastwest;rotatable=0;whiteSpace=wrap;html=1;" vertex="1" parent="Vzst9AxUtuQRtKNh6hwZ-72">
          <mxGeometry y="210" width="190" height="30" as="geometry" />
        </mxCell>
        <mxCell id="wTqyuKIVNjIW1eiZXpSt-92" style="edgeStyle=orthogonalEdgeStyle;rounded=0;orthogonalLoop=1;jettySize=auto;html=1;exitX=1;exitY=0.5;exitDx=0;exitDy=0;entryX=1;entryY=0.5;entryDx=0;entryDy=0;" edge="1" parent="Vzst9AxUtuQRtKNh6hwZ-72" source="Vzst9AxUtuQRtKNh6hwZ-75" target="wTqyuKIVNjIW1eiZXpSt-13">
          <mxGeometry relative="1" as="geometry" />
        </mxCell>
        <mxCell id="Vzst9AxUtuQRtKNh6hwZ-75" value="SectionID: Int" style="text;strokeColor=none;fillColor=none;align=left;verticalAlign=middle;spacingLeft=4;spacingRight=4;overflow=hidden;points=[[0,0.5],[1,0.5]];portConstraint=eastwest;rotatable=0;whiteSpace=wrap;html=1;" parent="Vzst9AxUtuQRtKNh6hwZ-72" vertex="1">
          <mxGeometry y="240" width="190" height="30" as="geometry" />
        </mxCell>
        <mxCell id="wTqyuKIVNjIW1eiZXpSt-47" value="&lt;div&gt;baseWritingProjectID: Int&lt;/div&gt;" style="text;strokeColor=none;fillColor=none;align=left;verticalAlign=middle;spacingLeft=4;spacingRight=4;overflow=hidden;points=[[0,0.5],[1,0.5]];portConstraint=eastwest;rotatable=0;whiteSpace=wrap;html=1;" vertex="1" parent="Vzst9AxUtuQRtKNh6hwZ-72">
          <mxGeometry y="270" width="190" height="30" as="geometry" />
        </mxCell>
        <mxCell id="Vzst9AxUtuQRtKNh6hwZ-87" value="&lt;div&gt;Tesis&amp;nbsp;&lt;/div&gt;&lt;div&gt;implements&amp;nbsp;BaseWritingProject&lt;/div&gt;" style="swimlane;fontStyle=0;childLayout=stackLayout;horizontal=1;startSize=30;horizontalStack=0;resizeParent=1;resizeParentMax=0;resizeLast=0;collapsible=1;marginBottom=0;whiteSpace=wrap;html=1;" parent="1" vertex="1">
          <mxGeometry x="5" y="430" width="210" height="60" as="geometry">
            <mxRectangle x="50" y="40" width="70" height="30" as="alternateBounds" />
          </mxGeometry>
        </mxCell>
        <mxCell id="Vzst9AxUtuQRtKNh6hwZ-116" value="&lt;div&gt;Non Fiction&amp;nbsp;&lt;/div&gt;&lt;div&gt;implements&amp;nbsp;BaseWritingProject&lt;/div&gt;" style="swimlane;fontStyle=0;childLayout=stackLayout;horizontal=1;startSize=30;horizontalStack=0;resizeParent=1;resizeParentMax=0;resizeLast=0;collapsible=1;marginBottom=0;whiteSpace=wrap;html=1;" parent="1" vertex="1">
          <mxGeometry y="330" width="220" height="60" as="geometry">
            <mxRectangle x="50" y="40" width="70" height="30" as="alternateBounds" />
          </mxGeometry>
        </mxCell>
        <mxCell id="Vzst9AxUtuQRtKNh6hwZ-120" value="License" style="text;strokeColor=none;fillColor=none;align=left;verticalAlign=middle;spacingLeft=4;spacingRight=4;overflow=hidden;points=[[0,0.5],[1,0.5]];portConstraint=eastwest;rotatable=0;whiteSpace=wrap;html=1;" parent="Vzst9AxUtuQRtKNh6hwZ-116" vertex="1">
          <mxGeometry y="30" width="220" height="30" as="geometry" />
        </mxCell>
        <mxCell id="wTqyuKIVNjIW1eiZXpSt-62" style="edgeStyle=orthogonalEdgeStyle;rounded=0;orthogonalLoop=1;jettySize=auto;html=1;entryX=1;entryY=0.5;entryDx=0;entryDy=0;" edge="1" parent="1" source="wTqyuKIVNjIW1eiZXpSt-8" target="wTqyuKIVNjIW1eiZXpSt-5">
          <mxGeometry relative="1" as="geometry" />
        </mxCell>
        <mxCell id="wTqyuKIVNjIW1eiZXpSt-8" value="Status: Enum" style="swimlane;fontStyle=0;childLayout=stackLayout;horizontal=1;startSize=30;horizontalStack=0;resizeParent=1;resizeParentMax=0;resizeLast=0;collapsible=1;marginBottom=0;whiteSpace=wrap;html=1;" vertex="1" parent="1">
          <mxGeometry x="300" y="800" width="140" height="120" as="geometry" />
        </mxCell>
        <mxCell id="wTqyuKIVNjIW1eiZXpSt-9" value="TODO" style="text;strokeColor=none;fillColor=none;align=left;verticalAlign=middle;spacingLeft=4;spacingRight=4;overflow=hidden;points=[[0,0.5],[1,0.5]];portConstraint=eastwest;rotatable=0;whiteSpace=wrap;html=1;" vertex="1" parent="wTqyuKIVNjIW1eiZXpSt-8">
          <mxGeometry y="30" width="140" height="30" as="geometry" />
        </mxCell>
        <mxCell id="wTqyuKIVNjIW1eiZXpSt-10" value="DRAFT" style="text;strokeColor=none;fillColor=none;align=left;verticalAlign=middle;spacingLeft=4;spacingRight=4;overflow=hidden;points=[[0,0.5],[1,0.5]];portConstraint=eastwest;rotatable=0;whiteSpace=wrap;html=1;" vertex="1" parent="wTqyuKIVNjIW1eiZXpSt-8">
          <mxGeometry y="60" width="140" height="30" as="geometry" />
        </mxCell>
        <mxCell id="wTqyuKIVNjIW1eiZXpSt-11" value="FINAL" style="text;strokeColor=none;fillColor=none;align=left;verticalAlign=middle;spacingLeft=4;spacingRight=4;overflow=hidden;points=[[0,0.5],[1,0.5]];portConstraint=eastwest;rotatable=0;whiteSpace=wrap;html=1;" vertex="1" parent="wTqyuKIVNjIW1eiZXpSt-8">
          <mxGeometry y="90" width="140" height="30" as="geometry" />
        </mxCell>
        <mxCell id="wTqyuKIVNjIW1eiZXpSt-14" value="Genre: Enum" style="swimlane;fontStyle=0;childLayout=stackLayout;horizontal=1;startSize=30;horizontalStack=0;resizeParent=1;resizeParentMax=0;resizeLast=0;collapsible=1;marginBottom=0;whiteSpace=wrap;html=1;" vertex="1" parent="1">
          <mxGeometry x="-240" y="160" width="140" height="120" as="geometry" />
        </mxCell>
        <mxCell id="wTqyuKIVNjIW1eiZXpSt-15" value="Science Fiction" style="text;strokeColor=none;fillColor=none;align=left;verticalAlign=middle;spacingLeft=4;spacingRight=4;overflow=hidden;points=[[0,0.5],[1,0.5]];portConstraint=eastwest;rotatable=0;whiteSpace=wrap;html=1;" vertex="1" parent="wTqyuKIVNjIW1eiZXpSt-14">
          <mxGeometry y="30" width="140" height="30" as="geometry" />
        </mxCell>
        <mxCell id="wTqyuKIVNjIW1eiZXpSt-16" value="Fantasy" style="text;strokeColor=none;fillColor=none;align=left;verticalAlign=middle;spacingLeft=4;spacingRight=4;overflow=hidden;points=[[0,0.5],[1,0.5]];portConstraint=eastwest;rotatable=0;whiteSpace=wrap;html=1;" vertex="1" parent="wTqyuKIVNjIW1eiZXpSt-14">
          <mxGeometry y="60" width="140" height="30" as="geometry" />
        </mxCell>
        <mxCell id="wTqyuKIVNjIW1eiZXpSt-17" value="SometingElse1" style="text;strokeColor=none;fillColor=none;align=left;verticalAlign=middle;spacingLeft=4;spacingRight=4;overflow=hidden;points=[[0,0.5],[1,0.5]];portConstraint=eastwest;rotatable=0;whiteSpace=wrap;html=1;" vertex="1" parent="wTqyuKIVNjIW1eiZXpSt-14">
          <mxGeometry y="90" width="140" height="30" as="geometry" />
        </mxCell>
        <mxCell id="wTqyuKIVNjIW1eiZXpSt-18" style="edgeStyle=orthogonalEdgeStyle;rounded=0;orthogonalLoop=1;jettySize=auto;html=1;entryX=0;entryY=0.5;entryDx=0;entryDy=0;" edge="1" parent="1" source="wTqyuKIVNjIW1eiZXpSt-16" target="Vzst9AxUtuQRtKNh6hwZ-28">
          <mxGeometry relative="1" as="geometry" />
        </mxCell>
        <mxCell id="wTqyuKIVNjIW1eiZXpSt-51" style="edgeStyle=orthogonalEdgeStyle;rounded=0;orthogonalLoop=1;jettySize=auto;html=1;entryX=0.5;entryY=0;entryDx=0;entryDy=0;" edge="1" parent="1" source="wTqyuKIVNjIW1eiZXpSt-30" target="Vzst9AxUtuQRtKNh6hwZ-1">
          <mxGeometry relative="1" as="geometry" />
        </mxCell>
        <mxCell id="wTqyuKIVNjIW1eiZXpSt-30" value="BaseWritingProject" style="swimlane;fontStyle=0;childLayout=stackLayout;horizontal=1;startSize=30;horizontalStack=0;resizeParent=1;resizeParentMax=0;resizeLast=0;collapsible=1;marginBottom=0;whiteSpace=wrap;html=1;" vertex="1" parent="1">
          <mxGeometry x="10" y="-250" width="180" height="270" as="geometry">
            <mxRectangle x="50" y="40" width="70" height="30" as="alternateBounds" />
          </mxGeometry>
        </mxCell>
        <mxCell id="wTqyuKIVNjIW1eiZXpSt-31" value="Id: Int" style="text;strokeColor=none;fillColor=none;align=left;verticalAlign=middle;spacingLeft=4;spacingRight=4;overflow=hidden;points=[[0,0.5],[1,0.5]];portConstraint=eastwest;rotatable=0;whiteSpace=wrap;html=1;" vertex="1" parent="wTqyuKIVNjIW1eiZXpSt-30">
          <mxGeometry y="30" width="180" height="30" as="geometry" />
        </mxCell>
        <mxCell id="wTqyuKIVNjIW1eiZXpSt-108" value="projectListID: int" style="text;strokeColor=none;fillColor=none;align=left;verticalAlign=middle;spacingLeft=4;spacingRight=4;overflow=hidden;points=[[0,0.5],[1,0.5]];portConstraint=eastwest;rotatable=0;whiteSpace=wrap;html=1;" vertex="1" parent="wTqyuKIVNjIW1eiZXpSt-30">
          <mxGeometry y="60" width="180" height="30" as="geometry" />
        </mxCell>
        <mxCell id="wTqyuKIVNjIW1eiZXpSt-103" value="projectName: String" style="text;strokeColor=none;fillColor=none;align=left;verticalAlign=middle;spacingLeft=4;spacingRight=4;overflow=hidden;points=[[0,0.5],[1,0.5]];portConstraint=eastwest;rotatable=0;whiteSpace=wrap;html=1;" vertex="1" parent="wTqyuKIVNjIW1eiZXpSt-30">
          <mxGeometry y="90" width="180" height="30" as="geometry" />
        </mxCell>
        <mxCell id="wTqyuKIVNjIW1eiZXpSt-32" value="Title: String" style="text;strokeColor=none;fillColor=none;align=left;verticalAlign=middle;spacingLeft=4;spacingRight=4;overflow=hidden;points=[[0,0.5],[1,0.5]];portConstraint=eastwest;rotatable=0;whiteSpace=wrap;html=1;" vertex="1" parent="wTqyuKIVNjIW1eiZXpSt-30">
          <mxGeometry y="120" width="180" height="30" as="geometry" />
        </mxCell>
        <mxCell id="wTqyuKIVNjIW1eiZXpSt-33" value="Subtitle: String" style="text;strokeColor=none;fillColor=none;align=left;verticalAlign=middle;spacingLeft=4;spacingRight=4;overflow=hidden;points=[[0,0.5],[1,0.5]];portConstraint=eastwest;rotatable=0;whiteSpace=wrap;html=1;" vertex="1" parent="wTqyuKIVNjIW1eiZXpSt-30">
          <mxGeometry y="150" width="180" height="30" as="geometry" />
        </mxCell>
        <mxCell id="wTqyuKIVNjIW1eiZXpSt-38" value="Author Name: String" style="text;strokeColor=none;fillColor=none;align=left;verticalAlign=middle;spacingLeft=4;spacingRight=4;overflow=hidden;points=[[0,0.5],[1,0.5]];portConstraint=eastwest;rotatable=0;whiteSpace=wrap;html=1;" vertex="1" parent="wTqyuKIVNjIW1eiZXpSt-30">
          <mxGeometry y="180" width="180" height="30" as="geometry" />
        </mxCell>
        <mxCell id="wTqyuKIVNjIW1eiZXpSt-39" value="E-mail: String" style="text;strokeColor=none;fillColor=none;align=left;verticalAlign=middle;spacingLeft=4;spacingRight=4;overflow=hidden;points=[[0,0.5],[1,0.5]];portConstraint=eastwest;rotatable=0;whiteSpace=wrap;html=1;" vertex="1" parent="wTqyuKIVNjIW1eiZXpSt-30">
          <mxGeometry y="210" width="180" height="30" as="geometry" />
        </mxCell>
        <mxCell id="wTqyuKIVNjIW1eiZXpSt-44" value="Resume: String" style="text;strokeColor=none;fillColor=none;align=left;verticalAlign=middle;spacingLeft=4;spacingRight=4;overflow=hidden;points=[[0,0.5],[1,0.5]];portConstraint=eastwest;rotatable=0;whiteSpace=wrap;html=1;" vertex="1" parent="wTqyuKIVNjIW1eiZXpSt-30">
          <mxGeometry y="240" width="180" height="30" as="geometry" />
        </mxCell>
        <mxCell id="wTqyuKIVNjIW1eiZXpSt-57" style="edgeStyle=orthogonalEdgeStyle;rounded=0;orthogonalLoop=1;jettySize=auto;html=1;entryX=0;entryY=0.25;entryDx=0;entryDy=0;" edge="1" parent="1" source="Vzst9AxUtuQRtKNh6hwZ-47" target="Vzst9AxUtuQRtKNh6hwZ-116">
          <mxGeometry relative="1" as="geometry" />
        </mxCell>
        <mxCell id="wTqyuKIVNjIW1eiZXpSt-61" style="edgeStyle=orthogonalEdgeStyle;rounded=0;orthogonalLoop=1;jettySize=auto;html=1;entryX=0;entryY=0.177;entryDx=0;entryDy=0;entryPerimeter=0;" edge="1" parent="1" source="Vzst9AxUtuQRtKNh6hwZ-46" target="Vzst9AxUtuQRtKNh6hwZ-87">
          <mxGeometry relative="1" as="geometry" />
        </mxCell>
        <mxCell id="wTqyuKIVNjIW1eiZXpSt-66" style="edgeStyle=orthogonalEdgeStyle;rounded=0;orthogonalLoop=1;jettySize=auto;html=1;entryX=1;entryY=0.5;entryDx=0;entryDy=0;" edge="1" parent="1" source="wTqyuKIVNjIW1eiZXpSt-28" target="Vzst9AxUtuQRtKNh6hwZ-33">
          <mxGeometry relative="1" as="geometry" />
        </mxCell>
        <mxCell id="wTqyuKIVNjIW1eiZXpSt-67" value="StoryImportance Enum" style="swimlane;fontStyle=0;childLayout=stackLayout;horizontal=1;startSize=30;horizontalStack=0;resizeParent=1;resizeParentMax=0;resizeLast=0;collapsible=1;marginBottom=0;whiteSpace=wrap;html=1;" vertex="1" parent="1">
          <mxGeometry x="540" y="-10" width="200" height="120" as="geometry" />
        </mxCell>
        <mxCell id="wTqyuKIVNjIW1eiZXpSt-68" value="MAIN" style="text;strokeColor=none;fillColor=none;align=left;verticalAlign=middle;spacingLeft=4;spacingRight=4;overflow=hidden;points=[[0,0.5],[1,0.5]];portConstraint=eastwest;rotatable=0;whiteSpace=wrap;html=1;" vertex="1" parent="wTqyuKIVNjIW1eiZXpSt-67">
          <mxGeometry y="30" width="200" height="30" as="geometry" />
        </mxCell>
        <mxCell id="wTqyuKIVNjIW1eiZXpSt-69" value="SECONDARY" style="text;strokeColor=none;fillColor=none;align=left;verticalAlign=middle;spacingLeft=4;spacingRight=4;overflow=hidden;points=[[0,0.5],[1,0.5]];portConstraint=eastwest;rotatable=0;whiteSpace=wrap;html=1;" vertex="1" parent="wTqyuKIVNjIW1eiZXpSt-67">
          <mxGeometry y="60" width="200" height="30" as="geometry" />
        </mxCell>
        <mxCell id="wTqyuKIVNjIW1eiZXpSt-70" value="MINOR" style="text;strokeColor=none;fillColor=none;align=left;verticalAlign=middle;spacingLeft=4;spacingRight=4;overflow=hidden;points=[[0,0.5],[1,0.5]];portConstraint=eastwest;rotatable=0;whiteSpace=wrap;html=1;" vertex="1" parent="wTqyuKIVNjIW1eiZXpSt-67">
          <mxGeometry y="90" width="200" height="30" as="geometry" />
        </mxCell>
        <mxCell id="wTqyuKIVNjIW1eiZXpSt-74" value="PlotStep" style="swimlane;fontStyle=0;childLayout=stackLayout;horizontal=1;startSize=30;horizontalStack=0;resizeParent=1;resizeParentMax=0;resizeLast=0;collapsible=1;marginBottom=0;whiteSpace=wrap;html=1;" vertex="1" parent="1">
          <mxGeometry x="540" y="370" width="200" height="180" as="geometry" />
        </mxCell>
        <mxCell id="wTqyuKIVNjIW1eiZXpSt-75" value="id: Int" style="text;strokeColor=none;fillColor=none;align=left;verticalAlign=middle;spacingLeft=4;spacingRight=4;overflow=hidden;points=[[0,0.5],[1,0.5]];portConstraint=eastwest;rotatable=0;whiteSpace=wrap;html=1;" vertex="1" parent="wTqyuKIVNjIW1eiZXpSt-74">
          <mxGeometry y="30" width="200" height="30" as="geometry" />
        </mxCell>
        <mxCell id="wTqyuKIVNjIW1eiZXpSt-76" value="NextStepID: Int" style="text;strokeColor=none;fillColor=none;align=left;verticalAlign=middle;spacingLeft=4;spacingRight=4;overflow=hidden;points=[[0,0.5],[1,0.5]];portConstraint=eastwest;rotatable=0;whiteSpace=wrap;html=1;" vertex="1" parent="wTqyuKIVNjIW1eiZXpSt-74">
          <mxGeometry y="60" width="200" height="30" as="geometry" />
        </mxCell>
        <mxCell id="wTqyuKIVNjIW1eiZXpSt-79" value="PreviousStepID: Int" style="text;strokeColor=none;fillColor=none;align=left;verticalAlign=middle;spacingLeft=4;spacingRight=4;overflow=hidden;points=[[0,0.5],[1,0.5]];portConstraint=eastwest;rotatable=0;whiteSpace=wrap;html=1;" vertex="1" parent="wTqyuKIVNjIW1eiZXpSt-74">
          <mxGeometry y="90" width="200" height="30" as="geometry" />
        </mxCell>
        <mxCell id="wTqyuKIVNjIW1eiZXpSt-78" value="Goal: String" style="text;strokeColor=none;fillColor=none;align=left;verticalAlign=middle;spacingLeft=4;spacingRight=4;overflow=hidden;points=[[0,0.5],[1,0.5]];portConstraint=eastwest;rotatable=0;whiteSpace=wrap;html=1;" vertex="1" parent="wTqyuKIVNjIW1eiZXpSt-74">
          <mxGeometry y="120" width="200" height="30" as="geometry" />
        </mxCell>
        <mxCell id="wTqyuKIVNjIW1eiZXpSt-77" value="plotID: Int" style="text;strokeColor=none;fillColor=none;align=left;verticalAlign=middle;spacingLeft=4;spacingRight=4;overflow=hidden;points=[[0,0.5],[1,0.5]];portConstraint=eastwest;rotatable=0;whiteSpace=wrap;html=1;" vertex="1" parent="wTqyuKIVNjIW1eiZXpSt-74">
          <mxGeometry y="150" width="200" height="30" as="geometry" />
        </mxCell>
        <mxCell id="wTqyuKIVNjIW1eiZXpSt-81" style="edgeStyle=orthogonalEdgeStyle;rounded=0;orthogonalLoop=1;jettySize=auto;html=1;entryX=1;entryY=0.5;entryDx=0;entryDy=0;" edge="1" parent="1" source="wTqyuKIVNjIW1eiZXpSt-77" target="Vzst9AxUtuQRtKNh6hwZ-10">
          <mxGeometry relative="1" as="geometry" />
        </mxCell>
        <mxCell id="wTqyuKIVNjIW1eiZXpSt-82" value="WorldElement" style="swimlane;fontStyle=0;childLayout=stackLayout;horizontal=1;startSize=30;horizontalStack=0;resizeParent=1;resizeParentMax=0;resizeLast=0;collapsible=1;marginBottom=0;whiteSpace=wrap;html=1;" vertex="1" parent="1">
          <mxGeometry x="860" y="175" width="200" height="240" as="geometry" />
        </mxCell>
        <mxCell id="wTqyuKIVNjIW1eiZXpSt-83" value="id: Int" style="text;strokeColor=none;fillColor=none;align=left;verticalAlign=middle;spacingLeft=4;spacingRight=4;overflow=hidden;points=[[0,0.5],[1,0.5]];portConstraint=eastwest;rotatable=0;whiteSpace=wrap;html=1;" vertex="1" parent="wTqyuKIVNjIW1eiZXpSt-82">
          <mxGeometry y="30" width="200" height="30" as="geometry" />
        </mxCell>
        <mxCell id="wTqyuKIVNjIW1eiZXpSt-86" value="&lt;div&gt;name: String&lt;/div&gt;" style="text;strokeColor=none;fillColor=none;align=left;verticalAlign=middle;spacingLeft=4;spacingRight=4;overflow=hidden;points=[[0,0.5],[1,0.5]];portConstraint=eastwest;rotatable=0;whiteSpace=wrap;html=1;" vertex="1" parent="wTqyuKIVNjIW1eiZXpSt-82">
          <mxGeometry y="60" width="200" height="30" as="geometry" />
        </mxCell>
        <mxCell id="wTqyuKIVNjIW1eiZXpSt-89" value="Description: String" style="text;strokeColor=none;fillColor=none;align=left;verticalAlign=middle;spacingLeft=4;spacingRight=4;overflow=hidden;points=[[0,0.5],[1,0.5]];portConstraint=eastwest;rotatable=0;whiteSpace=wrap;html=1;" vertex="1" parent="wTqyuKIVNjIW1eiZXpSt-82">
          <mxGeometry y="90" width="200" height="30" as="geometry" />
        </mxCell>
        <mxCell id="wTqyuKIVNjIW1eiZXpSt-88" value="Pasion origin: String" style="text;strokeColor=none;fillColor=none;align=left;verticalAlign=middle;spacingLeft=4;spacingRight=4;overflow=hidden;points=[[0,0.5],[1,0.5]];portConstraint=eastwest;rotatable=0;whiteSpace=wrap;html=1;" vertex="1" parent="wTqyuKIVNjIW1eiZXpSt-82">
          <mxGeometry y="120" width="200" height="30" as="geometry" />
        </mxCell>
        <mxCell id="wTqyuKIVNjIW1eiZXpSt-87" value="conflictCause: String" style="text;strokeColor=none;fillColor=none;align=left;verticalAlign=middle;spacingLeft=4;spacingRight=4;overflow=hidden;points=[[0,0.5],[1,0.5]];portConstraint=eastwest;rotatable=0;whiteSpace=wrap;html=1;" vertex="1" parent="wTqyuKIVNjIW1eiZXpSt-82">
          <mxGeometry y="150" width="200" height="30" as="geometry" />
        </mxCell>
        <mxCell id="wTqyuKIVNjIW1eiZXpSt-90" style="edgeStyle=orthogonalEdgeStyle;rounded=0;orthogonalLoop=1;jettySize=auto;html=1;entryX=0;entryY=0.5;entryDx=0;entryDy=0;" edge="1" parent="wTqyuKIVNjIW1eiZXpSt-82" source="wTqyuKIVNjIW1eiZXpSt-84" target="wTqyuKIVNjIW1eiZXpSt-83">
          <mxGeometry relative="1" as="geometry" />
        </mxCell>
        <mxCell id="wTqyuKIVNjIW1eiZXpSt-84" value="worldElementID: Int" style="text;strokeColor=none;fillColor=none;align=left;verticalAlign=middle;spacingLeft=4;spacingRight=4;overflow=hidden;points=[[0,0.5],[1,0.5]];portConstraint=eastwest;rotatable=0;whiteSpace=wrap;html=1;" vertex="1" parent="wTqyuKIVNjIW1eiZXpSt-82">
          <mxGeometry y="180" width="200" height="30" as="geometry" />
        </mxCell>
        <mxCell id="wTqyuKIVNjIW1eiZXpSt-85" value="worldID: Int" style="text;strokeColor=none;fillColor=none;align=left;verticalAlign=middle;spacingLeft=4;spacingRight=4;overflow=hidden;points=[[0,0.5],[1,0.5]];portConstraint=eastwest;rotatable=0;whiteSpace=wrap;html=1;" vertex="1" parent="wTqyuKIVNjIW1eiZXpSt-82">
          <mxGeometry y="210" width="200" height="30" as="geometry" />
        </mxCell>
        <mxCell id="wTqyuKIVNjIW1eiZXpSt-91" style="edgeStyle=orthogonalEdgeStyle;rounded=0;orthogonalLoop=1;jettySize=auto;html=1;entryX=1;entryY=0.5;entryDx=0;entryDy=0;" edge="1" parent="1" source="wTqyuKIVNjIW1eiZXpSt-85" target="Vzst9AxUtuQRtKNh6hwZ-14">
          <mxGeometry relative="1" as="geometry" />
        </mxCell>
        <mxCell id="wTqyuKIVNjIW1eiZXpSt-93" style="edgeStyle=orthogonalEdgeStyle;rounded=0;orthogonalLoop=1;jettySize=auto;html=1;entryX=0;entryY=0.5;entryDx=0;entryDy=0;" edge="1" parent="1" source="wTqyuKIVNjIW1eiZXpSt-47" target="wTqyuKIVNjIW1eiZXpSt-31">
          <mxGeometry relative="1" as="geometry">
            <Array as="points">
              <mxPoint x="-30" y="815" />
              <mxPoint x="-30" y="-205" />
            </Array>
          </mxGeometry>
        </mxCell>
        <mxCell id="wTqyuKIVNjIW1eiZXpSt-101" style="edgeStyle=orthogonalEdgeStyle;rounded=0;orthogonalLoop=1;jettySize=auto;html=1;entryX=0;entryY=0.5;entryDx=0;entryDy=0;" edge="1" parent="1" source="wTqyuKIVNjIW1eiZXpSt-94" target="Vzst9AxUtuQRtKNh6hwZ-120">
          <mxGeometry relative="1" as="geometry" />
        </mxCell>
        <mxCell id="wTqyuKIVNjIW1eiZXpSt-102" style="edgeStyle=orthogonalEdgeStyle;rounded=0;orthogonalLoop=1;jettySize=auto;html=1;entryX=0;entryY=0.75;entryDx=0;entryDy=0;" edge="1" parent="1" source="wTqyuKIVNjIW1eiZXpSt-94" target="Vzst9AxUtuQRtKNh6hwZ-87">
          <mxGeometry relative="1" as="geometry" />
        </mxCell>
        <mxCell id="wTqyuKIVNjIW1eiZXpSt-94" value="ReferenciaBase:&lt;br&gt;&amp;nbsp; id: string&amp;nbsp; &amp;nbsp; &amp;nbsp; &amp;nbsp; &amp;nbsp; &amp;nbsp; # identificador Ãºnico (slug, hash, etc.)&lt;br&gt;&amp;nbsp; tipo: string&amp;nbsp; &amp;nbsp; &amp;nbsp; &amp;nbsp; &amp;nbsp; # libro, artÃ­culo, web, video, entrevista, etc.&lt;br&gt;&amp;nbsp; titulo: string&amp;nbsp; &amp;nbsp; &amp;nbsp; &amp;nbsp; # tÃ­tulo general de la obra o entrada&lt;br&gt;&amp;nbsp; autor: string/null&amp;nbsp; &amp;nbsp; # autor principal (o null si no aplica)&lt;br&gt;&amp;nbsp; aÃ±o: int/null&amp;nbsp; &amp;nbsp; &amp;nbsp; &amp;nbsp; &amp;nbsp;# aÃ±o de publicaciÃ³n o producciÃ³n&lt;br&gt;&amp;nbsp; temas:&amp;nbsp; &amp;nbsp; &amp;nbsp; &amp;nbsp; &amp;nbsp; &amp;nbsp; &amp;nbsp; &amp;nbsp; # etiquetas o categorÃ­as&lt;br&gt;&amp;nbsp; &amp;nbsp; - string&lt;br&gt;&lt;div&gt;&amp;nbsp; notas: string/null&amp;nbsp; &amp;nbsp; # comentario personal o uso en texto&lt;/div&gt;&lt;div&gt;&amp;nbsp; baseWritingProjectID: Int&lt;/div&gt;&lt;div&gt;&lt;br&gt;&lt;/div&gt;" style="text;html=1;whiteSpace=wrap;overflow=hidden;rounded=0;" vertex="1" parent="1">
          <mxGeometry x="-700" y="245" width="340" height="150" as="geometry" />
        </mxCell>
        <mxCell id="wTqyuKIVNjIW1eiZXpSt-95" value="Libro:&#xa;Â  extends: ReferenciaBase&#xa;Â  editorial: string&#xa;Â  ISBN: string/null" style="text;whiteSpace=wrap;" vertex="1" parent="1">
          <mxGeometry x="-700" y="410" width="170" height="80" as="geometry" />
        </mxCell>
        <mxCell id="wTqyuKIVNjIW1eiZXpSt-96" value="ArticuloAcademico:&#xa;Â  extends: ReferenciaBase&#xa;Â  revista: string&#xa;Â  volumen: string/null&#xa;Â  numero: string/null&#xa;Â  DOI: string/null&#xa;Â  resumen: string/null" style="text;whiteSpace=wrap;" vertex="1" parent="1">
          <mxGeometry x="-700" y="490" width="170" height="120" as="geometry" />
        </mxCell>
        <mxCell id="wTqyuKIVNjIW1eiZXpSt-97" value="PaginaWeb:&#xa;Â  extends: ReferenciaBase&#xa;Â  fecha_consulta: stringÂ  # formato ISO: YYYY-MM-DD&#xa;Â  url: string" style="text;whiteSpace=wrap;" vertex="1" parent="1">
          <mxGeometry x="-700" y="610" width="320" height="80" as="geometry" />
        </mxCell>
        <mxCell id="wTqyuKIVNjIW1eiZXpSt-98" value="Video:&#xa;Â  extends: ReferenciaBase&#xa;Â  director: string&#xa;Â  plataforma: stringÂ  Â  Â  Â  # YouTube, Netflix, Vimeo, etc.&#xa;Â  tiempo_relevante: string/nullÂ  # ejemplo: &quot;min 12:35 - 14:20&quot;" style="text;whiteSpace=wrap;" vertex="1" parent="1">
          <mxGeometry x="-700" y="690" width="360" height="100" as="geometry" />
        </mxCell>
        <mxCell id="wTqyuKIVNjIW1eiZXpSt-99" value="Entrevista:&#xa;Â  extends: ReferenciaBase&#xa;Â  entrevistado: string&#xa;Â  entrevistador: string&#xa;Â  fecha: stringÂ  # formato ISO&#xa;Â  formato: stringÂ  Â  Â # video, audio, transcripciÃ³n, etc.&#xa;Â  fragmentos_clave:Â &#xa;Â  Â  - string" style="text;whiteSpace=wrap;" vertex="1" parent="1">
          <mxGeometry x="-700" y="780" width="310" height="140" as="geometry" />
        </mxCell>
        <mxCell id="wTqyuKIVNjIW1eiZXpSt-104" value="ProjectList" style="swimlane;fontStyle=0;childLayout=stackLayout;horizontal=1;startSize=30;horizontalStack=0;resizeParent=1;resizeParentMax=0;resizeLast=0;collapsible=1;marginBottom=0;whiteSpace=wrap;html=1;" vertex="1" parent="1">
          <mxGeometry y="-360" width="200" height="60" as="geometry" />
        </mxCell>
        <mxCell id="wTqyuKIVNjIW1eiZXpSt-105" value="id: int" style="text;strokeColor=none;fillColor=none;align=left;verticalAlign=middle;spacingLeft=4;spacingRight=4;overflow=hidden;points=[[0,0.5],[1,0.5]];portConstraint=eastwest;rotatable=0;whiteSpace=wrap;html=1;" vertex="1" parent="wTqyuKIVNjIW1eiZXpSt-104">
          <mxGeometry y="30" width="200" height="30" as="geometry" />
        </mxCell>
      </root>
    </mxGraphModel>
  </diagram>
</mxfile>
